<svg xmlns="http://www.w3.org/2000/svg" width="56" height="56" fill="none" viewBox="0 0 56 56">
    <mask id="sea09ncyfa" width="36" height="26" x="10" y="15" maskUnits="userSpaceOnUse">
        <path fill="#fff" fill-rule="evenodd" d="M10.5 15.866h35v24.626h-35V15.866z" clip-rule="evenodd"/>
    </mask>
    <g mask="url(#sea09ncyfa)">
        <path fill="#fff" fill-rule="evenodd" d="M24.34 27.805v2.477c.002.73 0 1.46.006 2.19.002.218.053.247.24.15.959-.49 1.917-.982 2.872-1.477.975-.505 1.947-1.012 2.92-1.52 1.082-.564 2.163-1.13 3.244-1.695.163-.087.167-.137.002-.23-.32-.178-.646-.348-.972-.52l-4.568-2.386c-1.147-.6-2.294-1.203-3.442-1.802-.244-.126-.3-.088-.3.186l-.001 4.627zm21.16-.002c-.04 1.666-.046 2.956-.107 4.244-.05 1.028-.124 2.058-.265 3.076-.15 1.088-.435 2.15-1.049 3.09-.406.622-.978 1.055-1.629 1.393-.488.253-1.015.415-1.56.448-2.003.122-4.006.234-6.01.32-1.35.058-2.702.074-4.054.093-1.276.02-2.552.032-3.829.022-1.748-.014-3.495-.04-5.242-.086-1.487-.038-2.976-.087-4.46-.172-.844-.048-1.686-.144-2.519-.28-.85-.139-1.635-.467-2.29-1.056-.542-.486-.885-1.094-1.135-1.769-.398-1.072-.568-2.184-.633-3.319-.07-1.246-.195-2.49-.21-3.737-.02-1.835-.004-3.673.07-5.506.05-1.265.171-2.533.358-3.785.148-.99.446-1.96 1.066-2.78.568-.753 1.316-1.28 2.228-1.51.596-.153 1.218-.223 1.834-.275.965-.08 1.933-.133 2.902-.165 1.597-.055 3.193-.09 4.79-.122 1.55-.03 3.1-.067 4.648-.06 2.124.012 4.247.05 6.37.101 1.425.034 2.85.105 4.275.176.66.032 1.326.057 1.976.17 1.674.286 2.938 1.144 3.528 2.796.242.676.428 1.38.563 2.086.121.626.163 1.271.195 1.91.081 1.69.136 3.381.188 4.697z" clip-rule="evenodd"/>
    </g>
</svg>
