<svg xmlns="http://www.w3.org/2000/svg" width="56" height="56" fill="none" viewBox="0 0 56 56">
    <mask id="7qhqaur7pa" width="38" height="27" x="9" y="14" maskUnits="userSpaceOnUse">
        <path fill="#fff" fill-rule="evenodd" d="M9.333 14h37.333v26.712H9.333V14z" clip-rule="evenodd"/>
    </mask>
    <g mask="url(#7qhqaur7pa)">
        <path fill="#fff" fill-rule="evenodd" d="M30.525 29.375c-.01 1.878 1.355 3.356 3.12 3.382 1.77.026 3.172-1.46 3.203-3.392.03-1.924-1.364-3.442-3.146-3.427-1.765.015-3.167 1.531-3.177 3.437zm-5.31-.077c.009-1.894-1.34-3.35-3.114-3.36-1.771-.011-3.223 1.544-3.23 3.459-.007 1.842 1.396 3.34 3.146 3.36 1.792.021 3.187-1.49 3.198-3.46zM16.113 17.83c7.758-3.27 15.498-3.47 23.259-.007-2.042-1.46-4.332-2.382-6.694-3.157.137-.665.56-.69 1.02-.65 2.247.199 4.317.934 6.31 1.97 1.398.727 2.35 1.734 2.978 3.224 2.146 5.104 3.549 10.36 3.68 15.923.014.573-.133 1.027-.51 1.46-2.344 2.676-5.374 3.856-8.84 4.089-.194.013-.464-.064-.583-.2-.674-.763-1.314-1.557-2.075-2.473 2.04-.621 3.79-1.53 5.172-3.055-3.688 1.962-7.59 3.119-11.783 3.06-4.196-.06-8.126-1.176-11.778-3.26-.045.061-.09.122-.133.183.789.597 1.538 1.263 2.38 1.774.846.514 1.785.874 2.83 1.372-.726.868-1.424 1.72-2.15 2.549-.083.095-.322.083-.487.072-3.56-.228-6.642-1.476-8.938-4.305-.276-.34-.448-.88-.438-1.321.154-6.016 1.652-11.707 4.271-17.11.191-.394.525-.772.887-1.023 2.322-1.616 4.88-2.636 7.713-2.918.693-.068.694-.052.998.526-2.515.791-4.953 1.737-7.089 3.277z" clip-rule="evenodd"/>
    </g>
</svg>
