<svg xmlns="http://www.w3.org/2000/svg" width="56" height="56" fill="none" viewBox="0 0 56 56">
    <g fill="#fff" clip-path="url(#clip0)">
        <path d="M22.322 10.2l4.564 2.133c.806.355 1.343.444 2.148.089l7.07-3.2c.716-.267.985-.978.716-1.6-.268-.622-1.074-.8-1.61-.445l-6.534 4.09c-.179.088-.268.177-.358.177-.358.089-.716.089-1.074-.267l-3.49-2.844c-.448-.445-1.253-.356-1.7.089-.448.622-.359 1.422.268 1.777zM44.246 25.844l-1.074.8c-.537.356-.985.711-1.522 1.067-.447.266-.805.533-1.163.8-1.074.622-1.7.977-1.7.977-.09.09-.269.09-.358.178 0 0-.09 0-.09.089-.09 0-.179.089-.268.089h-.18c-.089 0-.268.089-.358.089H36.46c-.089 0-.178 0-.268-.09h-.09c-.089 0-.268-.088-.358-.088l-.536-.267c-.18-.088-.269-.266-.358-.355-.09-.09-.18-.267-.269-.356 0-.089-.09-.089-.09-.178-.089-.177-.178-.355-.178-.533 0-.089-.09-.178-.09-.267v-.088-.178-.267V27v-.178c0-.178 0-.267-.09-.445 0-.177 0-.355-.089-.533-.09-.533-.09-1.067-.179-1.689-.09-1.244-.179-2.489-.179-3.733 0-.445.09-.8.18-1.067.089-.178.089-.267.178-.444 0-.09.09-.09.09-.178.179-.267.268-.356.447-.534.18-.177.269-.177.269-.177.09-.09.268-.178.358-.178 0 0 .09 0 .09-.089.089 0 .178-.089.268-.089h.178c.09 0 .18 0 .269-.089h.985c.089 0 .178 0 .268.09h.09c.089 0 .268.088.358.088.178.089.358.178.626.267.269.089.627.266.895.355.716.267 1.342.623 1.7.8l.358.178 1.611.8c.358.178.716.356 1.074.622 0-.178 0-.355-.09-.444-.089-.534-.268-1.245-.357-1.333-.627-2.312-3.222-3.29-3.222-3.29-.806-.355-2.596-.8-2.596-.8-3.132-1.244-6.354-1.688-9.576-1.688h-.268s-4.923 0-9.576 1.155c-1.701.534-2.417.89-2.417.89-1.342.621-2.416 1.51-3.043 2.844.09 0 .09-.09.18-.09.089-.088.268-.088.357-.177l.09-.089c.179-.089.358-.178.537-.178h.09c.178-.089.268-.089.447-.178.09 0 .09 0 .179-.088.09 0 .268-.09.358-.09h.179c.09 0 .268 0 .447-.088h1.521c.18 0 .269 0 .448.089h.179c.179 0 .358.089.627.177 1.879.534 3.042 1.6 3.669 3.023.626 1.333.626 3.022.09 4.8-.09.177-.09.444-.18.622 0 .089-.09.089-.09.178-.089.089-.089.266-.178.355 0 .09-.09.178-.09.178-.09.089-.09.178-.179.356 0 .088-.09.177-.09.177-.089.09-.178.178-.178.267l-.18.178-.268.266-.179.178-.268.267-.09.089c-.179.089-.268.267-.447.355h-.09c-.089.09-.268.178-.447.267-.09 0-.09.089-.179.089-.09.178-.179.267-.269.355-.089 0-.089.09-.178.09-.09.088-.18.088-.358.177-.09 0-.18.089-.18.089-.089 0-.178.089-.357.089-.09 0-.18 0-.18.089-.089 0-.268.089-.357.089h-.18c-.178 0-.268 0-.447.089h-1.343c-.178 0-.447-.09-.626-.09-.895-.177-1.79-.622-2.506-1.244l-.268-.266c0 3.733.358 7.377 1.074 10.844.268 1.422.895 2.044.895 2.044.716.89 1.7 1.6 2.863 1.867.09 0 .18 0 .269.089 3.58.711 7.339 1.067 11.187 1.067 3.849 0 7.607-.356 11.188-1.067h.178c1.88-.444 3.401-1.956 3.849-3.822.716-3.556 1.074-7.111 1.074-10.845-.09-1.155-.09-2.044-.18-2.844zm-20.943 2.311v-.267l.269-2.666.268-2.667v-.267c0-.088 0-.177.09-.266.09-.267.179-.534.268-.711.269-.445.716-.8 1.164-1.067l.805-.267h3.491c.805.178 1.521.622 1.88 1.334.178.266.268.444.268.71 0 .09.09.267.09.356v.178l.447 4.889v.711c0 1.156-.806 2.222-1.88 2.578-.179.089-.268.089-.447.089H25.45c-.09 0-.268 0-.358-.09-.268-.088-.537-.177-.805-.355-.269-.177-.448-.355-.627-.622s-.358-.533-.447-.8c-.09-.267-.18-.622-.18-.889.27.178.27.089.27.089zm13.246 6.667c-4.206 3.91-12.977 3.91-17.094 0-.268-.267-.268-.711 0-.978.269-.267.716-.267.984 0 3.58 3.378 11.456 3.378 15.126 0 .268-.267.716-.267.984 0 .269.267.269.711 0 .978z"/>
        <path d="M43.794 21.845l-.089-.09c-1.074-.621-1.969-1.066-3.132-1.688 0 0-1.97-.89-3.401-1.511-.269-.09-.448-.178-.716-.178-.358 0-.716.089-.985.267-.09.088-.626.444-.626 1.333 0 1.155.09 2.311.179 3.733.179 2.045.358 3.378.358 3.378s.09.978.895 1.333c.179.09.358.09.626.09.537 0 .985-.178 1.253-.356 0 0 1.074-.534 2.775-1.69.716-.444 1.342-.888 1.969-1.421.358-.267.715-.534 1.074-.8.089-.09.179-.09.179-.178-.09-.8-.18-1.6-.269-2.311 0 .177 0 .177-.09.089zm-5.1 4c-1.254 0-2.328-1.067-2.328-2.311 0-1.245 1.074-2.312 2.327-2.312s2.327 1.067 2.327 2.311c.09 1.245-.984 2.312-2.327 2.312zM25.722 29.666c.09 0 .268.089.358.089h4.027c.716-.089 1.253-.711 1.253-1.511v-.267l-.447-5.333v-.089-.178c-.18-.533-.627-.977-1.164-1.155H26.616c-.626.089-1.073.533-1.252 1.155v.356l-.448 5.333v.178c-.268.711.18 1.244.806 1.422zM14.709 28.69c.358.088.716.088 1.074.088 2.506 0 4.475-1.511 5.19-3.911.538-1.867.896-5.067-2.863-6.311-.537-.178-1.074-.267-1.611-.267-1.522 0-3.043.622-4.206 1.778-.358 2.133-.537 4.267-.627 6.4.806 1.244 1.88 2.044 3.043 2.222zm1.969-7.468c1.253 0 2.327 1.067 2.327 2.311 0 1.245-1.074 2.312-2.327 2.312s-2.327-1.067-2.327-2.311c-.09-1.334.984-2.312 2.327-2.312z"/>
    </g>
    <defs>
        <clipPath id="clip0">
            <path fill="#fff" d="M0 0H32.667V37.333H0z" transform="translate(11.666 7)"/>
        </clipPath>
    </defs>
</svg>
